<svg width="40" height="40" viewBox="0 0 40 40" fill="none" xmlns="http://www.w3.org/2000/svg">
<path d="M20.0003 0C12.2428 0 5.93147 6.31136 5.93115 14.0691C5.93115 18.7677 8.26363 23.1382 12.1708 25.7594C12.3184 25.8582 12.5168 25.8189 12.615 25.672C12.7136 25.5254 12.6745 25.3267 12.5276 25.2282C8.79803 22.7261 6.57147 18.5546 6.57147 14.0691C6.57147 6.66432 12.5952 0.64 20 0.64C27.4047 0.64 33.4287 6.66432 33.4287 14.0691C33.4287 18.5741 31.1868 22.7555 27.432 25.2554C27.2847 25.3533 27.2448 25.552 27.343 25.6989C27.4044 25.7917 27.5062 25.8416 27.6096 25.8416C27.6707 25.8416 27.7321 25.8243 27.7865 25.7878C31.7206 23.1693 34.0691 18.7888 34.0691 14.0691C34.0691 6.31136 27.7577 0 20.0003 0Z" fill="#212126"/>
<path d="M24.3699 29.9945H15.6291C15.4521 29.9945 15.3091 30.1375 15.3091 30.3145V35.0636C15.3091 37.2691 17.0313 39.0633 19.1478 39.0633H20.8473C22.9305 39.0633 24.6902 37.2319 24.6899 35.0636V30.3145C24.6899 30.1375 24.5468 29.9945 24.3699 29.9945ZM24.0505 35.0636C24.0505 36.8847 22.584 38.4233 20.8476 38.4233H19.1481C17.4144 38.4233 15.9494 36.8847 15.9494 35.0636V30.6345H24.0505V35.0636Z" fill="#212126"/>
<path d="M15.944 30.5037C15.6243 28.5427 14.4342 26.6624 12.6803 25.3456C12.6317 25.3091 12.5821 25.2729 12.5331 25.2377C12.3888 25.1356 12.1891 25.1686 12.0864 25.3123C11.9837 25.4566 12.0173 25.6563 12.161 25.759C12.2058 25.7907 12.2499 25.823 12.2947 25.8569C13.919 27.0761 15.0189 28.8073 15.312 30.607C15.3376 30.7638 15.4736 30.8755 15.6275 30.8755C15.6445 30.8755 15.6617 30.8742 15.6797 30.871C15.8541 30.8429 15.9725 30.6781 15.944 30.5037Z" fill="#212126"/>
<path d="M27.9082 25.3124C27.8052 25.1684 27.6052 25.1355 27.4618 25.2388C25.6254 26.5547 24.3822 28.474 24.0516 30.5041C24.0231 30.6785 24.1415 30.843 24.3159 30.8715C24.3335 30.8744 24.3508 30.8756 24.3678 30.8756C24.522 30.8756 24.658 30.7643 24.6836 30.6072C24.9873 28.7435 26.1354 26.9767 27.8346 25.7588C27.9783 25.6558 28.0113 25.4558 27.9082 25.3124Z" fill="#212126"/>
<path d="M21.561 38.4233C21.3841 38.4233 21.241 38.5664 21.241 38.7433V38.9875C21.241 39.1683 21.0807 39.36 20.929 39.36H19.1025C18.9419 39.36 18.7591 39.1616 18.7591 38.9875V38.7433C18.7591 38.5664 18.6161 38.4233 18.4391 38.4233C18.2622 38.4233 18.1191 38.5664 18.1191 38.7433V38.9875C18.1191 39.5174 18.5879 40 19.1025 40H20.929C21.4362 40 21.881 39.5267 21.881 38.9875V38.7433C21.881 38.5664 21.738 38.4233 21.561 38.4233Z" fill="#212126"/>
<path d="M18.6464 30.1977L14.7075 14.9014C14.6633 14.7302 14.487 14.6278 14.3177 14.671C14.1465 14.7152 14.0432 14.8899 14.0873 15.0608L18.0262 30.3571C18.0634 30.5014 18.1936 30.5974 18.336 30.5974C18.3626 30.5974 18.3894 30.5942 18.416 30.5875C18.5872 30.5433 18.6906 30.3686 18.6464 30.1977Z" fill="#212126"/>
<path d="M25.7155 14.671C25.5466 14.6281 25.3699 14.7302 25.3258 14.9014L21.3866 30.1977C21.3427 30.3686 21.4458 30.5433 21.617 30.5875C21.6435 30.5942 21.6704 30.5974 21.697 30.5974C21.8394 30.5974 21.9693 30.5014 22.0067 30.3571L25.9459 15.0608C25.9898 14.8899 25.8867 14.7152 25.7155 14.671Z" fill="#212126"/>
<path d="M25.1672 15.6266C24.5675 15.6266 24.2751 16.049 24.0402 16.3888C23.8251 16.6995 23.6911 16.8755 23.4389 16.8755C23.1867 16.8755 23.0527 16.6995 22.8376 16.3888C22.6027 16.049 22.3103 15.6266 21.7106 15.6266C21.1109 15.6266 20.8184 16.0493 20.5835 16.3891C20.3685 16.6999 20.2347 16.8755 19.9829 16.8755C19.7314 16.8755 19.5976 16.6999 19.3829 16.3888C19.148 16.0493 18.8562 15.6266 18.2572 15.6266C17.6575 15.6266 17.365 16.0493 17.1304 16.3891C16.9154 16.6999 16.7816 16.8755 16.5301 16.8755C16.2786 16.8755 16.1448 16.6999 15.9301 16.3891C15.6952 16.0493 15.4031 15.6266 14.8034 15.6266C14.6264 15.6266 14.4834 15.7696 14.4834 15.9466C14.4834 16.1235 14.6264 16.2666 14.8034 16.2666C15.0549 16.2666 15.1887 16.4423 15.4037 16.7533C15.6386 17.0928 15.9304 17.5155 16.5301 17.5155C17.1298 17.5155 17.4223 17.0928 17.6568 16.753C17.8719 16.4423 18.0056 16.2666 18.2572 16.2666C18.508 16.2666 18.6418 16.4423 18.8562 16.753C19.0914 17.0928 19.3835 17.5155 19.9829 17.5155C20.5826 17.5155 20.8747 17.0931 21.1096 16.7533C21.3247 16.4426 21.4584 16.2666 21.7106 16.2666C21.9624 16.2666 22.0965 16.4423 22.3115 16.753C22.5464 17.0928 22.8389 17.5155 23.4389 17.5155C24.0389 17.5155 24.3314 17.0928 24.5663 16.753C24.7813 16.4423 24.9154 16.2666 25.1672 16.2666C25.3442 16.2666 25.4872 16.1235 25.4872 15.9466C25.4872 15.7696 25.3442 15.6266 25.1672 15.6266Z" fill="#212126"/>
<path d="M26.6436 4.19449C26.4967 4.09625 26.2983 4.13433 26.1991 4.28089C26.1006 4.42713 26.139 4.62617 26.2856 4.72537C29.3963 6.82681 31.2535 10.3199 31.2535 14.0691C31.2535 14.246 31.3966 14.3891 31.5735 14.3891C31.7505 14.3891 31.8935 14.246 31.8935 14.0687C31.8935 10.1068 29.931 6.41529 26.6436 4.19449Z" fill="#212126"/>
<path d="M24.4486 3.02565C23.03 2.45189 21.5282 2.16101 19.9855 2.16101C19.8086 2.16101 19.6655 2.30405 19.6655 2.48101C19.6655 2.65797 19.8086 2.80101 19.9855 2.80101C21.4457 2.80101 22.8665 3.07653 24.2086 3.61893C24.2479 3.63493 24.2886 3.64229 24.3286 3.64229C24.4553 3.64229 24.575 3.56677 24.6252 3.44229C24.6914 3.27845 24.6124 3.09189 24.4486 3.02565Z" fill="#212126"/>
<path d="M21.5611 31.5555H15.6296C15.4526 31.5555 15.3096 31.6986 15.3096 31.8755C15.3096 32.0525 15.4526 32.1955 15.6296 32.1955H21.5611C21.7381 32.1955 21.8811 32.0525 21.8811 31.8755C21.8811 31.6986 21.7381 31.5555 21.5611 31.5555Z" fill="#212126"/>
<path d="M21.5611 33.1165H15.6296C15.4526 33.1165 15.3096 33.2595 15.3096 33.4365C15.3096 33.6134 15.4526 33.7565 15.6296 33.7565H21.5611C21.7381 33.7565 21.8811 33.6134 21.8811 33.4365C21.8811 33.2595 21.7381 33.1165 21.5611 33.1165Z" fill="#212126"/>
<path d="M21.5611 34.6774H15.6296C15.4526 34.6774 15.3096 34.8204 15.3096 34.9974C15.3096 35.1743 15.4526 35.3174 15.6296 35.3174H21.5611C21.7381 35.3174 21.8811 35.1743 21.8811 34.9974C21.8811 34.8204 21.7381 34.6774 21.5611 34.6774Z" fill="#212126"/>
<path d="M24.3704 31.5555H23.4338C23.2568 31.5555 23.1138 31.6986 23.1138 31.8755C23.1138 32.0525 23.2568 32.1955 23.4338 32.1955H24.3704C24.5474 32.1955 24.6904 32.0525 24.6904 31.8755C24.6904 31.6986 24.5474 31.5555 24.3704 31.5555Z" fill="#212126"/>
<path d="M24.3704 33.1165H23.4338C23.2568 33.1165 23.1138 33.2595 23.1138 33.4365C23.1138 33.6134 23.2568 33.7565 23.4338 33.7565H24.3704C24.5474 33.7565 24.6904 33.6134 24.6904 33.4365C24.6904 33.2595 24.5474 33.1165 24.3704 33.1165Z" fill="#212126"/>
<path d="M24.3704 34.6774H23.4338C23.2568 34.6774 23.1138 34.8204 23.1138 34.9974C23.1138 35.1743 23.2568 35.3174 23.4338 35.3174H24.3704C24.5474 35.3174 24.6904 35.1743 24.6904 34.9974C24.6904 34.8204 24.5474 34.6774 24.3704 34.6774Z" fill="#212126"/>
<path d="M24.0582 36.238H15.9421C15.7651 36.238 15.6221 36.3811 15.6221 36.558C15.6221 36.735 15.7651 36.878 15.9421 36.878H24.0585C24.2352 36.878 24.3782 36.735 24.3782 36.558C24.3782 36.3811 24.2352 36.238 24.0582 36.238Z" fill="#212126"/>
</svg>
