<svg width="40" height="40" viewBox="0 0 40 40" fill="none" xmlns="http://www.w3.org/2000/svg">
<path d="M37.4931 4.21729C37.3164 4.21729 37.1731 4.36033 37.1731 4.53729V29.8326H2.82652V4.53729C2.82652 4.36033 2.68316 4.21729 2.50652 4.21729C2.32988 4.21729 2.18652 4.36033 2.18652 4.53729V30.1526C2.18652 30.3296 2.32988 30.4726 2.50652 30.4726H37.4934C37.67 30.4726 37.8134 30.3293 37.8131 30.1526V4.53729C37.8131 4.36033 37.6697 4.21729 37.4931 4.21729Z" fill="#212126"/>
<path d="M38.7433 1.71802H1.2575C1.08086 1.71802 0.9375 1.86106 0.9375 2.03802V4.53722C0.9375 4.71418 1.08086 4.85722 1.2575 4.85722H33.1202C33.2969 4.85722 33.4402 4.71418 33.4402 4.53722C33.4402 4.36026 33.2969 4.21722 33.1202 4.21722H1.5775V2.35802H38.4229V4.21722H35.9317C35.7551 4.21722 35.6117 4.36026 35.6117 4.53722C35.6117 4.71418 35.7551 4.85722 35.9317 4.85722H38.7429C38.9199 4.85722 39.0629 4.71386 39.0633 4.53722V2.03802C39.0633 1.86106 38.9199 1.71802 38.7433 1.71802Z" fill="#212126"/>
<path d="M39.68 1.71802H0.32C0.14336 1.71802 0 1.86106 0 2.03802C0 2.21498 0.14336 2.35802 0.32 2.35802H39.68C39.8566 2.35802 40 2.21498 40 2.03802C40 1.86106 39.8566 1.71802 39.68 1.71802Z" fill="#212126"/>
<path d="M20.0002 0.156128C19.8235 0.156128 19.6802 0.299168 19.6802 0.476128V1.72573C19.6802 1.90269 19.8235 2.04573 20.0002 2.04573C20.1768 2.04573 20.3202 1.90237 20.3202 1.72541V0.476128C20.3202 0.299168 20.1768 0.156128 20.0002 0.156128Z" fill="#212126"/>
<path d="M20.0002 29.8326C19.8235 29.8326 19.6802 29.9757 19.6802 30.1526V39.5238C19.6802 39.7008 19.8235 39.8438 20.0002 39.8438C20.1768 39.8438 20.3202 39.7005 20.3202 39.5238V30.1526C20.3202 29.9757 20.1768 29.8326 20.0002 29.8326Z" fill="#212126"/>
<path d="M29.059 39.2039H10.9406C10.764 39.2039 10.6206 39.3469 10.6206 39.5239C10.6206 39.7008 10.764 39.8439 10.9406 39.8439H29.059C29.2356 39.8439 29.379 39.7008 29.379 39.5239C29.379 39.3469 29.2356 39.2039 29.059 39.2039Z" fill="#212126"/>
<path d="M33.4325 24.8342H6.56756C6.39092 24.8342 6.24756 24.9773 6.24756 25.1542C6.24756 25.3312 6.39092 25.4742 6.56756 25.4742H33.4325C33.6092 25.4742 33.7525 25.3312 33.7525 25.1542C33.7525 24.9773 33.6092 24.8342 33.4325 24.8342Z" fill="#212126"/>
<path d="M11.8781 20.7734H8.12957C7.95293 20.7734 7.80957 20.9165 7.80957 21.0934V25.1542C7.80957 25.3312 7.95293 25.4742 8.12957 25.4742H11.8781C12.0547 25.4742 12.1981 25.3312 12.1981 25.1542V21.0934C12.1981 20.9165 12.0547 20.7734 11.8781 20.7734ZM11.5581 24.8342H8.44957V21.4134H11.5581V24.8342Z" fill="#212126"/>
<path d="M16.8761 17.6493H13.1276C12.951 17.6493 12.8076 17.7923 12.8076 17.9693V25.1543C12.8076 25.3312 12.951 25.4743 13.1276 25.4743H16.8761C17.0531 25.4743 17.1961 25.3312 17.1961 25.1543V17.9693C17.1961 17.7923 17.0527 17.6493 16.8761 17.6493ZM16.5561 24.8343H13.4476V18.2893H16.5561V24.8343Z" fill="#212126"/>
<path d="M21.8741 12.6515H18.1257C17.949 12.6515 17.8057 12.7945 17.8057 12.9715V25.1542C17.8057 25.3312 17.949 25.4742 18.1257 25.4742H21.8741C22.0511 25.4742 22.1941 25.3312 22.1941 25.1542V12.9715C22.1941 12.7945 22.0508 12.6515 21.8741 12.6515ZM21.5541 24.8342H18.4457V13.2915H21.5541V24.8342Z" fill="#212126"/>
<path d="M26.8725 16.7126H23.1237C22.9471 16.7126 22.8037 16.8557 22.8037 17.0326V25.1543C22.8037 25.3312 22.9471 25.4743 23.1237 25.4743H26.8725C27.0491 25.4743 27.1925 25.3312 27.1925 25.1546V17.0326C27.1925 16.8557 27.0491 16.7126 26.8725 16.7126ZM23.4437 24.8343V17.3526H26.5525V24.8343H23.4437Z" fill="#212126"/>
<path d="M31.8706 8.90271H28.1218C27.9451 8.90271 27.8018 9.04575 27.8018 9.22271V25.1542C27.8018 25.3312 27.9451 25.4742 28.1218 25.4742H31.8706C32.0472 25.4742 32.1906 25.3312 32.1906 25.1542V9.22271C32.1906 9.04575 32.0472 8.90271 31.8706 8.90271ZM28.4418 24.8342V9.54271H31.5506V24.8342H28.4418Z" fill="#212126"/>
</svg>
