<svg width="40" height="40" viewBox="0 0 40 40" fill="none" xmlns="http://www.w3.org/2000/svg">
<g clip-path="url(#clip0)">
<path d="M20.312 18.7427H6.56707C6.39011 18.7427 6.24707 18.8857 6.24707 19.0627C6.24707 19.2396 6.39011 19.3827 6.56707 19.3827H20.3123C20.489 19.3827 20.632 19.2396 20.632 19.0627C20.632 18.8857 20.489 18.7427 20.312 18.7427Z" fill="#212126"/>
<path d="M20.312 21.2419H6.56707C6.39011 21.2419 6.24707 21.385 6.24707 21.5619C6.24707 21.7389 6.39011 21.8819 6.56707 21.8819H20.3123C20.489 21.8819 20.632 21.7389 20.632 21.5619C20.632 21.385 20.489 21.2419 20.312 21.2419Z" fill="#212126"/>
<path d="M20.312 23.7408H6.56707C6.39011 23.7408 6.24707 23.8839 6.24707 24.0608C6.24707 24.2378 6.39011 24.3808 6.56707 24.3808H20.3123C20.489 24.3808 20.632 24.2378 20.632 24.0608C20.632 23.8839 20.489 23.7408 20.312 23.7408Z" fill="#212126"/>
<path d="M20.312 26.24H6.56707C6.39011 26.24 6.24707 26.383 6.24707 26.56C6.24707 26.7369 6.39011 26.88 6.56707 26.88H20.3123C20.489 26.88 20.632 26.7369 20.632 26.56C20.632 26.383 20.489 26.24 20.312 26.24Z" fill="#212126"/>
<path d="M26.5599 28.7393H17.1887C17.0117 28.7393 16.8687 28.8823 16.8687 29.0593C16.8687 29.2362 17.0117 29.3793 17.1887 29.3793H26.5599C26.7368 29.3793 26.8799 29.2362 26.8799 29.0593C26.8799 28.8823 26.7368 28.7393 26.5599 28.7393Z" fill="#212126"/>
<path d="M26.5599 31.238H17.1887C17.0117 31.238 16.8687 31.3811 16.8687 31.558C16.8687 31.735 17.0117 31.878 17.1887 31.878H26.5599C26.7368 31.878 26.8799 31.735 26.8799 31.558C26.8799 31.3811 26.7368 31.238 26.5599 31.238Z" fill="#212126"/>
<path d="M26.5599 33.7373H17.1887C17.0117 33.7373 16.8687 33.8803 16.8687 34.0573C16.8687 34.2343 17.0117 34.3773 17.1887 34.3773H26.5599C26.7368 34.3773 26.8799 34.2343 26.8799 34.0573C26.8799 33.8803 26.7368 33.7373 26.5599 33.7373Z" fill="#212126"/>
<path d="M26.5599 36.2361H17.1887C17.0117 36.2361 16.8687 36.3791 16.8687 36.5561C16.8687 36.733 17.0117 36.8761 17.1887 36.8761H26.5599C26.7368 36.8761 26.8799 36.733 26.8799 36.5561C26.8799 36.3791 26.7368 36.2361 26.5599 36.2361Z" fill="#212126"/>
<path d="M26.56 18.7427H22.4992C22.3222 18.7427 22.1792 18.8857 22.1792 19.0627C22.1792 19.2396 22.3222 19.3827 22.4992 19.3827H26.56C26.737 19.3827 26.88 19.2396 26.88 19.0627C26.88 18.8857 26.737 18.7427 26.56 18.7427Z" fill="#212126"/>
<path d="M26.56 21.2419H22.4992C22.3222 21.2419 22.1792 21.385 22.1792 21.5619C22.1792 21.7389 22.3222 21.8819 22.4992 21.8819H26.56C26.737 21.8819 26.88 21.7389 26.88 21.5619C26.88 21.385 26.737 21.2419 26.56 21.2419Z" fill="#212126"/>
<path d="M26.56 23.7408H22.4992C22.3222 23.7408 22.1792 23.8839 22.1792 24.0608C22.1792 24.2378 22.3222 24.3808 22.4992 24.3808H26.56C26.737 24.3808 26.88 24.2378 26.88 24.0608C26.88 23.8839 26.737 23.7408 26.56 23.7408Z" fill="#212126"/>
<path d="M26.56 26.24H22.4992C22.3222 26.24 22.1792 26.383 22.1792 26.56C22.1792 26.7369 22.3222 26.88 22.4992 26.88H26.56C26.737 26.88 26.88 26.7369 26.88 26.56C26.88 26.383 26.737 26.24 26.56 26.24Z" fill="#212126"/>
<path d="M28.5485 6.87231H4.57862C4.1207 6.87231 3.74854 7.24447 3.74854 7.70239V39.1699C3.74854 39.6278 4.1207 40 4.57862 40H28.5485C29.0065 40 29.3789 39.6278 29.3789 39.1699V7.70239C29.3789 7.24447 29.0065 6.87231 28.5485 6.87231ZM28.7389 39.1702C28.7389 39.2749 28.6535 39.3603 28.5485 39.3603H4.57862C4.47398 39.3603 4.38854 39.2749 4.38854 39.1702V7.70271C4.38854 7.59807 4.47398 7.51263 4.57862 7.51263V7.51231H28.5485C28.6535 7.51231 28.7389 7.59775 28.7389 7.70239V39.1702Z" fill="#212126"/>
<path d="M26.5597 9.99609H6.56707C6.39011 9.99609 6.24707 10.1391 6.24707 10.3161V16.5638C6.24707 16.7407 6.39011 16.8838 6.56707 16.8838H26.5597C26.7367 16.8838 26.8797 16.7404 26.8797 16.5635V10.3161C26.8797 10.1391 26.7367 9.99609 26.5597 9.99609ZM26.2397 16.2438H6.88707V10.6361H26.2397V16.2438Z" fill="#212126"/>
<path d="M14.3768 28.7393H6.87957C6.70261 28.7393 6.55957 28.8823 6.55957 29.0593V36.5562C6.55957 36.7332 6.70261 36.8762 6.87957 36.8762H14.3768C14.5535 36.8762 14.6968 36.7332 14.6968 36.5565V29.0593C14.6968 28.8823 14.5538 28.7393 14.3768 28.7393ZM14.0568 36.2362H7.19957V29.3793H14.0568V36.2362Z" fill="#212126"/>
<path d="M32.0831 3.43652H8.09785C7.64889 3.43652 7.18457 3.71972 7.18457 4.193V7.19268C7.18457 7.36964 7.32761 7.51268 7.50457 7.51268C7.68153 7.51268 7.82457 7.36964 7.82457 7.19268V4.193C7.82457 4.1482 7.94969 4.07652 8.09785 4.07652H32.0831C32.135 4.07652 32.1561 4.08548 32.158 4.08548H32.1583C32.1603 4.08932 32.1753 4.11684 32.1753 4.193V35.6599C32.1753 35.8151 32.1158 35.9239 32.0831 35.9239H29.0591C28.8822 35.9239 28.7391 36.0669 28.7391 36.2439C28.7391 36.4208 28.8822 36.5639 29.0591 36.5639H32.0831C32.5075 36.5639 32.8153 36.1834 32.8153 35.6599V4.193C32.8153 3.72644 32.5347 3.43652 32.0831 3.43652Z" fill="#212126"/>
<path d="M35.5213 0H11.5357C11.0861 0 10.6211 0.28192 10.6211 0.75456V3.75616C10.6211 3.93312 10.7641 4.07616 10.9411 4.07616C11.1181 4.07616 11.2611 3.93312 11.2611 3.75616V0.75456C11.2611 0.7104 11.3865 0.64 11.5357 0.64H35.5213C35.5757 0.64 35.5955 0.64864 35.5952 0.648C35.5977 0.6528 35.6115 0.68128 35.6115 0.75456V32.2214C35.6115 32.3776 35.5533 32.4874 35.5213 32.4874H32.8077C32.6307 32.4874 32.4877 32.6304 32.4877 32.8074C32.4877 32.9843 32.6307 33.1274 32.8077 33.1274H35.5213C35.9443 33.1274 36.2515 32.7466 36.2515 32.2214V0.75456C36.2515 0.28896 35.9718 0 35.5213 0Z" fill="#212126"/>
</g>
<defs>
<clipPath id="clip0">
<rect width="40" height="40" fill="white"/>
</clipPath>
</defs>
</svg>
