<svg width="40" height="40" viewBox="0 0 40 40" fill="none" xmlns="http://www.w3.org/2000/svg">
<path d="M35.6265 1.5625H4.37646C2.8258 1.5625 1.56396 2.82433 1.56396 4.375V35.625C1.56396 37.1757 2.8258 38.4375 4.37646 38.4375H35.6265C37.1771 38.4375 38.439 37.1757 38.439 35.625V4.375C38.439 2.82433 37.1771 1.5625 35.6265 1.5625ZM20.1241 8.29783C20.2394 8.24874 20.3141 8.13572 20.3141 8.01033V2.18767H35.6268C36.833 2.18767 37.8143 3.16893 37.8143 4.37517V19.6878H32.6516C33.1179 19.0204 33.3913 18.2341 33.4335 17.4166C33.4938 16.2554 33.0585 15.0876 32.2395 14.2132C31.4217 13.3398 30.287 12.8295 29.1267 12.8135C27.9526 12.7965 26.833 13.2445 25.9926 14.0728C25.1521 14.9016 24.6894 16.0079 24.6894 17.1878C24.6894 18.0909 24.9653 18.9579 25.4766 19.6878H20.3143V13.8651C20.3143 13.7399 20.2395 13.6267 20.1243 13.5776C20.0096 13.5285 19.8759 13.5526 19.7855 13.6399C19.0821 14.3158 18.1598 14.6879 17.1893 14.6879C16.1777 14.6879 15.2296 14.291 14.5192 13.571C14.4304 13.481 14.3467 13.3873 14.2683 13.2904C13.7192 12.6113 13.4274 11.7703 13.4399 10.8844C13.4537 9.89311 13.8917 8.92161 14.6417 8.21901C15.3933 7.51524 16.3936 7.14374 17.3857 7.19271C18.2813 7.23893 19.1335 7.60964 19.7855 8.23581C19.8758 8.32292 20.0089 8.347 20.1243 8.29818L20.1241 8.29783ZM2.18913 4.37517C2.18913 3.1689 3.1704 2.18767 4.37663 2.18767H19.6893V7.35033C19.0219 6.88407 18.2355 6.61063 17.4181 6.56843C16.2569 6.50724 15.089 6.94343 14.2147 7.76243C13.3412 8.58027 12.8309 9.7149 12.8149 10.8752C12.7987 12.0558 13.2459 13.1689 14.0743 14.0093C14.9031 14.8498 16.0093 15.3126 17.1893 15.3126C18.0924 15.3126 18.9593 15.0367 19.6893 14.5253V19.6877H13.8666C13.7413 19.6877 13.6282 19.7624 13.5791 19.8776C13.53 19.993 13.5544 20.1261 13.6413 20.2164C14.3172 20.9198 14.6894 21.8421 14.6894 22.8127C14.6894 23.8243 14.2925 24.7723 13.5724 25.4827C12.8524 26.1928 11.9065 26.5787 10.8858 26.5622C9.89457 26.5484 8.92307 26.1103 8.22047 25.3603C7.51707 24.609 7.14301 23.6088 7.19417 22.6163C7.2404 21.7208 7.61111 20.8685 8.23727 20.2166C8.32412 20.1262 8.34847 19.9929 8.29951 19.8775C8.25055 19.7624 8.13753 19.6877 8.01214 19.6877H2.18947L2.18913 4.37517ZM19.8791 31.7025C19.7638 31.7516 19.6892 31.8647 19.6892 31.99V37.8127H4.37649C3.17022 37.8127 2.18899 36.8314 2.18899 35.6252V20.3125H7.35166C6.88539 20.9799 6.61196 21.7663 6.56976 22.5837C6.50947 23.7449 6.94476 24.9128 7.76376 25.7871C8.58159 26.6606 9.71623 27.1709 10.8765 27.1869C10.8976 27.1875 10.9186 27.1875 10.9395 27.1875C11.0052 27.1875 11.0692 27.181 11.1346 27.1781C11.2047 27.175 11.275 27.1744 11.3442 27.1681C11.4174 27.1616 11.4893 27.1491 11.5614 27.1391C11.6311 27.1291 11.7011 27.1219 11.7699 27.1085C11.8433 27.0944 11.9149 27.0748 11.9873 27.0569C12.053 27.0406 12.1192 27.0272 12.1839 27.0082C12.2596 26.9861 12.333 26.9576 12.4071 26.9314C12.4665 26.9104 12.5268 26.8921 12.585 26.8686C12.6631 26.8371 12.7381 26.7992 12.8144 26.763C12.8662 26.7383 12.9198 26.7168 12.9707 26.6899C13.0497 26.6483 13.1256 26.6001 13.2022 26.5537C13.2475 26.5262 13.2944 26.5018 13.3388 26.4727C13.4216 26.4182 13.5004 26.357 13.5796 26.2968C13.6147 26.2699 13.6518 26.2465 13.6862 26.2186C13.7984 26.1278 13.9067 26.0311 14.0109 25.9283C14.8511 25.0987 15.3139 23.9925 15.3139 22.8125C15.3139 21.9094 15.038 21.0424 14.5267 20.3125H19.689V26.1352C19.689 26.2604 19.7637 26.3736 19.879 26.4227C19.9943 26.4714 20.1277 26.4477 20.218 26.3604C20.9215 25.6845 21.8434 25.3124 22.814 25.3124C23.8256 25.3124 24.7736 25.7093 25.4841 26.4293C25.5729 26.5193 25.6566 26.6131 25.735 26.7099C26.2841 27.389 26.5759 28.23 26.5634 29.1159C26.5496 30.1072 26.1115 31.0787 25.3615 31.7813C24.61 32.4847 23.6093 32.8579 22.6175 32.8076C21.722 32.7614 20.8698 32.3907 20.2178 31.7645C20.1278 31.6774 19.9944 31.653 19.879 31.7021L19.8791 31.7025ZM37.8141 35.6252C37.8141 36.8314 36.8329 37.8127 35.6266 37.8127H20.314V32.65C20.9814 33.1163 21.7677 33.3897 22.5852 33.4319C23.7459 33.4906 24.914 33.0569 25.7886 32.2379C26.662 31.4201 27.1723 30.2854 27.1883 29.1251C27.2046 27.9445 26.7573 26.8314 25.929 25.991C25.1002 25.1505 23.9939 24.6878 22.814 24.6878C21.9109 24.6878 21.0439 24.9637 20.314 25.475V20.3127H26.1367C26.2619 20.3127 26.3751 20.2379 26.4242 20.1227C26.4733 20.0073 26.4489 19.874 26.3619 19.7836C25.686 19.0801 25.3139 18.1582 25.3139 17.1877C25.3139 16.1761 25.7108 15.228 26.4308 14.5176C27.1511 13.8076 28.1018 13.4239 29.1174 13.4382C30.1087 13.452 31.0802 13.89 31.7828 14.64C32.4862 15.3913 32.8603 16.3916 32.8091 17.384C32.7629 18.2796 32.3922 19.1318 31.766 19.7837C31.6791 19.8741 31.6548 20.0074 31.7038 20.1228C31.7528 20.2382 31.866 20.3128 31.9913 20.3128L37.8139 20.3129L37.8141 35.6252Z" fill="#212126"/>
</svg>
