<svg width="40" height="40" viewBox="0 0 40 40" fill="none" xmlns="http://www.w3.org/2000/svg">
<g clip-path="url(#clip0)">
<path d="M31.2477 12.498H5.93951C5.76793 12.498 5.625 12.6411 5.625 12.8126C5.625 12.9841 5.768 13.1271 5.93951 13.1271H31.2477C31.4193 13.1271 31.5622 12.9841 31.5622 12.8126C31.5528 12.6315 31.4193 12.498 31.2477 12.498Z" fill="#212126"/>
<path d="M20.6192 7.49377H5.93951C5.76793 7.49377 5.625 7.63678 5.625 7.80829C5.625 7.9798 5.768 8.1228 5.93951 8.1228H20.6192C20.7908 8.1228 20.9337 7.9798 20.9337 7.80829C20.9338 7.6367 20.7908 7.49377 20.6192 7.49377Z" fill="#212126"/>
<path d="M31.2482 7.49365H24.69C24.5184 7.49365 24.3755 7.63666 24.3755 7.80817C24.3755 7.97976 24.5185 8.12268 24.69 8.12268H31.2482C31.4198 8.12268 31.5627 7.97968 31.5627 7.80817C31.5532 7.63666 31.4198 7.49365 31.2482 7.49365Z" fill="#212126"/>
<path d="M39.8936 14.1377L37.1769 11.6308V6.47381C37.1769 3.8143 35.3372 1.87918 32.8015 1.87918H4.69088C2.1076 1.86965 0.000976562 3.93825 0.000976562 6.46428V14.2617C0.000976562 16.8544 2.14572 19.0564 4.69088 19.0564H32.8015C35.1464 19.0564 37.3008 17.0069 37.4819 14.6811H39.6839C39.8078 14.6811 39.9317 14.6049 39.9793 14.4809C40.027 14.357 39.9889 14.233 39.8936 14.1377ZM37.1769 14.0614C37.0053 14.0614 36.8624 14.2044 36.8624 14.3759C36.8624 16.2919 35.1275 18.4367 32.8017 18.4367H4.69088C2.4889 18.4367 0.630161 16.5302 0.630161 14.2711V6.47381C0.630161 4.25276 2.41267 2.50837 4.69088 2.50837H32.8015C34.9749 2.50837 36.5573 4.17646 36.5573 6.47381V11.7737C36.5573 11.8594 36.5954 11.9453 36.6525 12.0024L38.8831 14.0614H37.1769Z" fill="#212126"/>
<path d="M33.7453 31.5532H8.43707C8.26548 31.5532 8.12256 31.6962 8.12256 31.8677C8.12256 32.0392 8.26556 32.1823 8.43707 32.1823H33.7453C33.9169 32.1823 34.0598 32.0392 34.0598 31.8677C34.0599 31.6962 33.9169 31.5532 33.7453 31.5532Z" fill="#212126"/>
<path d="M33.7452 26.5582H19.0655C18.8939 26.5582 18.751 26.7012 18.751 26.8727C18.751 27.0443 18.894 27.1873 19.0655 27.1873H33.7452C33.9168 27.1873 34.0597 27.0442 34.0597 26.8727C34.0598 26.6916 33.9168 26.5582 33.7452 26.5582Z" fill="#212126"/>
<path d="M14.9952 26.5487H8.43707C8.26548 26.5487 8.12256 26.6917 8.12256 26.8632C8.12256 27.0443 8.26556 27.1777 8.43707 27.1777H14.9952C15.1668 27.1777 15.3098 27.0347 15.3098 26.8632C15.3098 26.6917 15.1668 26.5487 14.9952 26.5487Z" fill="#212126"/>
<path d="M35.2991 20.9342H7.18847C4.55755 20.9342 2.49856 22.9455 2.49856 25.5192V30.6952L0.0869481 33.2117C0.00119283 33.2975 -0.0274704 33.431 0.0297779 33.5549C0.0774198 33.6693 0.191838 33.7456 0.315707 33.7456H2.5177C2.69881 36.0714 4.84355 38.1209 7.19808 38.1209H35.3087C37.7585 38.1209 39.684 36.0142 39.684 33.3166V25.5192C39.684 22.8597 37.8347 20.9342 35.2991 20.9342ZM35.3087 37.4822H7.18847C4.86261 37.4822 3.12775 35.3374 3.12775 33.4214C3.12775 33.2499 2.98474 33.1069 2.81323 33.1069H1.04018L3.03246 31.0194C3.08963 30.9622 3.11822 30.8859 3.11822 30.8001V25.5002C3.11822 23.2792 4.90072 21.5444 7.17894 21.5444H35.2896C37.463 21.5444 39.0358 23.2125 39.0358 25.5002V33.3071H39.0548C39.0549 35.6519 37.4058 37.4822 35.3087 37.4822Z" fill="#212126"/>
</g>
<defs>
<clipPath id="clip0">
<rect width="40" height="40" fill="white"/>
</clipPath>
</defs>
</svg>
